<svg version="1.1" id="Layer_1" xmlns="http://www.w3.org/2000/svg" xmlns:xlink="http://www.w3.org/1999/xlink" x="0px" y="0px"
	 width="100%" viewBox="0 0 1400 990" enable-background="new 0 0 1400 990" xml:space="preserve">
<path fill="#000000" opacity="1.000000" stroke="none" 
	d="
M983.000000,991.000000 
	C655.333313,991.000000 328.166656,991.000000 1.000000,991.000000 
	C1.000000,661.000000 1.000000,331.000000 1.000000,1.000000 
	C467.666656,1.000000 934.333313,1.000000 1401.000000,1.000000 
	C1401.000000,331.000000 1401.000000,661.000000 1401.000000,991.000000 
	C1261.833374,991.000000 1122.666626,991.000000 983.000000,991.000000 
M430.094116,493.561310 
	C430.378052,493.775604 430.662018,493.989868 430.941711,494.906647 
	C430.987885,495.605591 431.034058,496.304504 431.226715,497.742157 
	C433.852692,504.836304 436.478668,511.930450 439.091003,519.564026 
	C439.375397,519.770752 439.659790,519.977478 439.981964,520.611206 
	C439.981964,520.611206 440.102264,521.022705 440.089813,521.563599 
	C440.374786,521.771240 440.659760,521.978882 440.983215,522.610474 
	C440.983215,522.610474 441.102264,523.019165 441.088043,523.563782 
	C441.373596,523.775635 441.659149,523.987488 441.950073,524.809509 
	C441.996765,525.212097 442.043488,525.614746 442.088226,526.562012 
	C442.374512,526.772644 442.660828,526.983337 442.978577,527.613586 
	C442.978577,527.613586 443.097229,528.017334 443.084259,528.560608 
	C443.374390,528.762939 443.664520,528.965271 443.942932,529.098633 
	C443.942932,529.098633 443.882904,529.134583 443.977509,529.870667 
	C444.657776,531.016174 445.322540,532.171326 446.021027,533.305603 
	C449.044983,538.216187 452.078796,543.120728 455.089935,548.564575 
	C455.375397,548.766602 455.660828,548.968689 455.987518,549.607300 
	C455.987518,549.607300 456.111908,550.027771 456.090668,550.565674 
	C456.375488,550.770325 456.660309,550.974976 456.983734,551.609497 
	C456.983734,551.609497 457.108337,552.022827 457.088196,552.564514 
	C457.372406,552.775513 457.656647,552.986450 458.142059,553.710449 
	C458.461029,554.147766 458.779999,554.585083 459.083099,555.566345 
	C459.368530,555.778015 459.653931,555.989746 460.178925,556.753540 
	C460.819397,557.509338 461.459869,558.265137 462.083618,559.566284 
	C462.368347,559.781250 462.653107,559.996216 463.064301,560.633484 
	C463.236633,560.901611 463.481750,561.047363 464.178833,561.693909 
	C464.638580,561.872375 465.319885,561.914429 465.525970,562.249084 
	C472.399994,573.412231 481.715302,582.228210 492.077454,590.566833 
	C492.364441,590.778748 492.651398,590.990723 493.132019,591.713623 
	C493.688538,592.164551 494.245026,592.615417 495.026886,593.561646 
	C495.342957,593.674377 495.659058,593.787170 496.492676,594.094238 
	C496.927643,594.417969 497.362610,594.741699 498.025421,595.561157 
	C498.342407,595.674072 498.659393,595.786987 499.387970,596.025391 
	C499.387970,596.025391 499.816559,596.063965 500.170929,596.699768 
	C506.103302,600.815735 511.757050,605.432922 518.036804,608.923950 
	C526.329102,613.533936 535.071777,617.348022 543.692627,621.349548 
	C561.896057,629.799133 581.234802,634.634399 601.075684,635.798645 
	C622.470764,637.054138 644.020447,636.815125 666.037537,631.992920 
	C669.456787,631.674683 672.872986,631.318542 676.295898,631.045715 
	C684.971375,630.354187 693.711060,630.138672 702.313965,628.937439 
	C719.049255,626.600586 735.750977,623.957581 752.387634,620.997803 
	C769.762634,617.906555 787.260193,615.123047 804.312561,610.696411 
	C825.209778,605.271729 845.942566,598.962219 866.283752,591.733276 
	C880.374634,586.725586 894.577454,581.275452 905.728149,570.292908 
	C908.918152,567.151123 909.496948,564.028015 908.716980,560.329590 
	C907.093018,552.628967 901.570740,547.444519 895.559937,543.372742 
	C887.196472,537.707336 878.266968,532.821350 869.324097,528.084351 
	C861.667786,524.028870 853.541626,520.866333 845.834656,516.898376 
	C840.956726,514.387024 836.466370,511.122833 831.802185,508.196259 
	C831.840637,507.605286 831.879089,507.014313 831.917542,506.423309 
	C836.505432,504.630951 840.975159,502.402496 845.701721,501.122223 
	C865.437683,495.776550 885.391785,491.189453 904.980530,485.364716 
	C915.930420,482.108673 926.331238,477.348511 935.865784,470.384155 
	C942.885315,465.256744 946.260620,459.112457 946.961670,451.170105 
	C948.245789,436.622894 937.157410,426.899719 926.165161,421.104797 
	C918.275452,416.945496 909.968262,413.525452 901.681885,410.186127 
	C893.382751,406.841705 884.888428,403.978271 876.459961,400.959045 
	C871.094116,399.036926 865.692383,397.214966 858.908569,394.863403 
	C862.227539,393.978394 863.944580,393.272003 865.715942,393.087769 
	C879.231628,391.682281 892.808411,390.752655 906.267090,388.939880 
	C920.243103,387.057404 934.166138,384.644287 948.001770,381.904602 
	C957.619507,380.000153 964.306213,373.100739 965.106873,366.488495 
	C966.337158,356.327393 962.176636,348.093964 955.576721,341.302582 
	C950.496704,336.075104 944.332520,331.769073 938.207092,327.724945 
	C931.458008,323.269257 924.270996,319.454132 917.145691,315.598450 
	C911.410217,312.494843 905.421021,309.862183 899.659851,306.803070 
	C895.220947,304.446106 891.084778,301.502472 886.589172,299.273163 
	C881.572571,296.785553 876.297424,294.820709 871.142700,292.609924 
	C860.539001,288.062225 850.058105,283.198792 839.307251,279.031464 
	C828.243469,274.742859 816.994812,270.888580 805.687378,267.282318 
	C793.064880,263.256714 780.432190,259.077393 767.535522,256.146027 
	C752.526062,252.734436 737.213074,250.671707 722.054688,247.898453 
	C704.834351,244.747955 687.488342,243.520004 669.080994,243.945801 
	C663.787537,244.020584 658.494019,244.095367 652.255554,243.973587 
	C632.086487,244.625580 611.865845,244.601288 591.763855,246.133377 
	C574.185486,247.473145 557.379211,252.787231 541.339355,260.271667 
	C536.936829,262.325928 532.431580,264.160065 527.453247,266.151031 
	C527.233948,266.415802 527.014648,266.680603 526.392578,267.109192 
	C526.140747,267.285553 525.988831,267.525238 525.218933,267.968750 
	C522.014587,269.592529 518.490662,270.791046 515.663086,272.916138 
	C505.297333,280.706665 495.163177,288.805267 484.340637,297.130737 
	C482.203217,298.930908 479.820221,300.512115 477.979431,302.576752 
	C474.127869,306.896667 470.375305,311.332428 466.922852,315.974121 
	C461.792450,322.871796 456.957336,329.989166 451.509796,337.392548 
	C449.561798,341.107300 447.714355,344.878967 445.648651,348.527039 
	C436.026428,365.519867 429.987885,383.805481 426.130005,402.849731 
	C425.658508,405.177307 426.328369,407.736084 426.508026,410.861786 
	C426.331512,411.053650 424.906555,411.886017 424.699280,412.954590 
	C423.899750,417.076935 423.104218,421.266205 423.011047,425.446167 
	C422.792480,435.253906 422.979340,445.070709 422.953094,455.750153 
	C423.286774,457.501526 423.619080,459.253174 423.954315,461.004242 
	C425.997253,471.675323 428.040863,482.346313 430.094116,493.561310 
M688.489258,710.016541 
	C705.038330,709.021667 721.642578,708.565552 738.120789,706.878723 
	C754.242981,705.228271 770.284485,702.596619 786.259277,699.810425 
	C791.349854,698.922546 796.336182,696.584473 800.970154,694.148926 
	C806.586731,691.196899 806.575317,683.782410 800.973938,681.148743 
	C795.615601,678.629272 789.988037,676.272156 784.223572,675.114319 
	C773.200134,672.900085 762.046387,671.015320 750.855469,670.021240 
	C727.916138,667.983582 704.938232,665.851440 681.935547,665.203003 
	C658.850037,664.552063 635.714905,665.657898 612.601624,665.998596 
	C611.936646,666.008362 611.270386,666.048889 610.608276,666.112671 
	C593.794434,667.732971 576.912170,668.856079 560.189819,671.146057 
	C547.443970,672.891663 534.500793,674.531433 522.830994,680.843140 
	C516.858582,684.073425 516.059265,690.918335 521.948547,694.146301 
	C526.687378,696.743591 531.970154,698.866333 537.261536,699.836487 
	C550.932129,702.342834 564.691101,704.566589 578.507385,706.027588 
	C595.468872,707.821167 612.505310,709.290955 629.544312,709.864624 
	C648.840393,710.514282 668.175049,710.015625 688.489258,710.016541 
M960.004028,524.134338 
	C960.232727,523.374207 960.377136,522.575684 960.703186,521.859863 
	C964.080200,514.446594 961.535950,503.327454 954.739258,499.403473 
	C945.453979,494.042694 935.266968,491.940521 924.751831,495.102631 
	C916.327576,497.636047 907.952637,500.532227 899.912170,504.075958 
	C894.224182,506.582947 888.604553,509.825867 883.907715,513.852356 
	C878.175964,518.766174 880.704590,528.176331 887.715637,530.995117 
	C902.699402,537.019287 918.356140,538.959595 934.287048,537.904602 
	C944.360107,537.237549 953.537231,533.699341 960.004028,524.134338 
M977.043579,394.651367 
	C976.024048,393.099792 975.361023,390.833221 973.924927,390.117157 
	C966.684509,386.507172 959.079712,385.948029 951.539612,389.182861 
	C945.490784,391.777924 938.613770,393.151184 934.902283,399.564941 
	C933.111633,402.659424 934.106934,406.506470 937.415222,408.078613 
	C947.729431,412.980286 958.571838,413.321808 969.424866,410.762543 
	C976.359619,409.127258 979.403381,402.341064 977.043579,394.651367 
z"/>
<path fill="#3A2416" opacity="1.000000" stroke="none" 
	d="
M423.002106,454.883820 
	C422.979340,445.070709 422.792480,435.253906 423.011047,425.446167 
	C423.104218,421.266205 423.899750,417.076935 424.699280,412.954590 
	C424.906555,411.886017 426.331512,411.053650 426.508026,410.861786 
	C426.328369,407.736084 425.658508,405.177307 426.130005,402.849731 
	C429.987885,383.805481 436.026428,365.519867 445.648651,348.527039 
	C447.714355,344.878967 449.561798,341.107300 452.166809,337.232117 
	C454.872406,336.612152 457.181549,336.613739 458.931213,335.625183 
	C495.124817,315.175018 533.803650,310.780121 574.223450,317.636536 
	C590.917786,320.468414 606.465271,326.675568 621.769531,334.486237 
	C637.514343,344.072876 650.869812,355.697510 660.907227,371.333374 
	C666.678528,381.300354 669.706116,391.828613 671.658325,403.179993 
	C672.312256,420.063538 668.098633,435.186340 659.445679,449.472107 
	C655.774536,454.005646 652.589111,458.502014 648.879822,462.513977 
	C637.356934,474.976898 623.249390,483.804382 607.588989,490.944336 
	C584.718018,500.309174 561.258362,504.415771 536.956177,503.944977 
	C518.138367,503.580444 499.918213,499.910553 481.849060,493.845703 
	C472.596344,489.130798 462.970459,485.499969 454.754120,479.827515 
	C445.584778,473.497131 437.758545,465.237915 429.196381,457.997223 
	C427.480804,456.546478 425.084534,455.900726 423.002106,454.883820 
M548.759583,393.892731 
	C549.861938,401.599365 550.964355,409.305969 552.074036,417.749756 
	C555.166199,422.800842 557.638123,428.399689 561.499146,432.771790 
	C566.987244,438.986298 574.193115,439.766418 582.104370,436.159332 
	C588.452942,432.807129 592.292358,427.236206 594.990417,420.896820 
	C601.846375,404.788055 602.237000,388.372772 596.257019,371.952759 
	C593.618347,364.707550 589.819519,358.102875 581.667969,354.178375 
	C569.730103,349.786133 555.997131,358.564423 553.319458,372.245575 
	C551.849365,379.151886 550.379211,386.058197 548.759583,393.892731 
M442.233490,403.946167 
	C442.929993,408.645630 443.626465,413.345062 444.400024,418.769287 
	C446.862762,424.134613 448.602570,430.010162 451.948944,434.751923 
	C457.713745,442.920532 465.438110,442.761566 472.818359,434.887268 
	C486.093536,417.574707 487.395874,380.933258 475.272400,362.937469 
	C474.019470,361.077637 472.130249,359.646454 470.044159,357.409485 
	C464.019440,353.775513 459.310516,354.190399 454.354919,359.154205 
	C447.845459,365.674469 445.214020,374.044434 443.177185,383.511993 
	C442.896667,390.021210 442.616119,396.530457 442.233490,403.946167 
z"/>
<path fill="#3DC6EF" opacity="1.000000" stroke="none" 
	d="
M670.002991,244.103973 
	C687.488342,243.520004 704.834351,244.747955 722.054688,247.898453 
	C737.213074,250.671707 752.526062,252.734436 767.535522,256.146027 
	C780.432190,259.077393 793.064880,263.256714 805.687378,267.282318 
	C816.994812,270.888580 828.243469,274.742859 839.307251,279.031464 
	C850.058105,283.198792 860.539001,288.062225 871.142700,292.609924 
	C876.297424,294.820709 881.572571,296.785553 886.589172,299.273163 
	C891.084778,301.502472 895.220947,304.446106 899.659851,306.803070 
	C905.421021,309.862183 911.410217,312.494843 917.145691,315.598450 
	C924.270996,319.454132 931.458008,323.269257 938.207092,327.724945 
	C944.332520,331.769073 950.496704,336.075104 955.576721,341.302582 
	C962.176636,348.093964 966.337158,356.327393 965.106873,366.488495 
	C964.306213,373.100739 957.619507,380.000153 948.001770,381.904602 
	C934.166138,384.644287 920.243103,387.057404 906.267090,388.939880 
	C892.808411,390.752655 879.231628,391.682281 865.715942,393.087769 
	C863.944580,393.272003 862.227539,393.978394 858.908569,394.863403 
	C865.692383,397.214966 871.094116,399.036926 876.459961,400.959045 
	C884.888428,403.978271 893.382751,406.841705 901.681885,410.186127 
	C909.968262,413.525452 918.275452,416.945496 926.165161,421.104797 
	C937.157410,426.899719 948.245789,436.622894 946.961670,451.170105 
	C946.260620,459.112457 942.885315,465.256744 935.865784,470.384155 
	C926.331238,477.348511 915.930420,482.108673 904.980530,485.364716 
	C885.391785,491.189453 865.437683,495.776550 845.701721,501.122223 
	C840.975159,502.402496 836.505432,504.630951 831.917542,506.423309 
	C831.879089,507.014313 831.840637,507.605286 831.802185,508.196259 
	C836.466370,511.122833 840.956726,514.387024 845.834656,516.898376 
	C853.541626,520.866333 861.667786,524.028870 869.324097,528.084351 
	C878.266968,532.821350 887.196472,537.707336 895.559937,543.372742 
	C901.570740,547.444519 907.093018,552.628967 908.716980,560.329590 
	C909.496948,564.028015 908.918152,567.151123 905.728149,570.292908 
	C894.577454,581.275452 880.374634,586.725586 866.283752,591.733276 
	C845.942566,598.962219 825.209778,605.271729 804.312561,610.696411 
	C787.260193,615.123047 769.762634,617.906555 752.387634,620.997803 
	C735.750977,623.957581 719.049255,626.600586 702.313965,628.937439 
	C693.711060,630.138672 684.971375,630.354187 676.295898,631.045715 
	C672.872986,631.318542 669.456787,631.674683 665.434692,631.557983 
	C665.475464,630.315063 665.990540,628.985962 666.784912,628.790222 
	C670.077454,627.978943 673.454346,627.510071 677.247925,626.940918 
	C680.166626,626.673828 682.638367,626.386353 685.108826,626.088013 
	C718.822388,622.016968 752.279846,616.535583 784.921082,606.954407 
	C795.740479,603.778564 806.315063,599.768799 817.385498,596.095398 
	C835.282043,590.050476 852.051941,582.496216 866.859802,571.244263 
	C869.858093,568.966003 871.674744,565.132751 874.049683,561.627075 
	C872.754517,558.666138 872.031555,555.460571 870.043762,553.623657 
	C854.688354,539.433655 836.313354,529.813110 817.915894,519.690552 
	C812.848816,515.459229 807.724670,511.773010 803.152222,507.496887 
	C798.948120,503.565094 799.609680,501.005127 804.928162,498.563629 
	C807.327942,497.461945 809.875732,496.534241 812.454102,495.993683 
	C831.962585,491.903839 851.495239,487.929779 871.400269,483.877136 
	C884.764038,480.388153 897.820312,477.123779 909.000854,469.117981 
	C916.255981,463.923004 920.650879,457.387054 918.851685,447.619171 
	C915.537476,442.369812 913.061646,436.595306 908.833984,432.743500 
	C895.701477,420.778595 879.868774,413.151428 863.074219,406.634094 
	C857.221008,404.242828 851.608459,402.230865 846.147217,399.869232 
	C837.180054,395.991577 828.267639,391.978241 819.448425,387.778015 
	C818.157104,387.163025 817.506287,385.203247 816.559082,383.865723 
	C817.967285,383.308502 819.332031,382.523163 820.793335,382.244202 
	C823.381836,381.750153 826.029114,381.563843 829.122681,381.340820 
	C842.521484,381.366638 855.449402,381.300323 868.716553,381.365814 
	C870.249512,381.414154 871.443359,381.330719 873.087280,381.346130 
	C879.407654,381.355652 885.277771,381.266296 891.604980,381.224182 
	C894.224731,381.220947 896.425842,381.413605 898.543823,381.079468 
	C909.987366,379.273987 921.469727,377.626495 932.808167,375.290710 
	C936.789368,374.470642 940.518250,371.972565 941.527588,366.774567 
	C943.066284,359.422577 942.404114,352.493713 937.917908,347.050079 
	C933.057617,341.152435 927.068298,336.185242 921.335632,330.537628 
	C900.198364,316.428436 877.779480,305.455475 854.664185,295.020386 
	C849.766296,292.933990 845.143555,291.118622 840.604126,289.114624 
	C813.203857,277.018402 785.004517,267.244385 755.877686,260.260437 
	C748.036255,258.380280 740.000854,257.309235 731.803467,255.555878 
	C708.253357,250.869507 684.817505,247.648361 661.381348,246.688751 
	C664.450073,245.689560 667.226501,244.896774 670.002991,244.103973 
z"/>
<path fill="#BC2E7F" opacity="1.000000" stroke="none" 
	d="
M462.100311,559.020935 
	C461.459869,558.265137 460.819397,557.509338 459.950470,556.259277 
	C459.566833,555.473389 459.359131,555.225891 459.098969,555.022400 
	C458.779999,554.585083 458.461029,554.147766 457.933472,553.237000 
	C457.570709,552.473938 457.365204,552.226990 457.108337,552.022827 
	C457.108337,552.022827 456.983734,551.609497 456.855560,551.181519 
	C456.572083,550.469360 456.366913,550.227417 456.111908,550.027771 
	C456.111908,550.027771 455.987518,549.607300 455.857178,549.177307 
	C455.570312,548.464966 455.364380,548.225037 455.109039,548.027466 
	C452.078796,543.120728 449.044983,538.216187 446.021027,533.305603 
	C445.322540,532.171326 444.657776,531.016174 444.325745,529.436279 
	C448.030334,528.334595 451.385284,527.093750 454.743164,527.085876 
	C507.075287,526.963196 559.407837,527.000000 611.740234,527.000000 
	C653.239502,527.000000 694.739075,527.055359 736.237488,526.867676 
	C738.840271,526.855896 741.434509,524.943848 744.373657,523.997925 
	C746.599854,525.143494 748.519348,526.150940 750.364502,527.279907 
	C760.682007,533.592712 769.741821,540.969238 772.350220,553.904785 
	C772.311707,554.449829 772.246643,554.749695 771.919495,555.209167 
	C771.902466,555.950867 772.064819,556.514893 772.209778,557.491699 
	C772.086975,559.275391 771.981506,560.646240 771.464355,561.977600 
	C768.086365,561.625366 765.121277,561.056152 762.153625,561.042053 
	C744.329285,560.957275 726.504456,560.995850 708.679749,561.000671 
	C627.053040,561.022644 545.426331,561.047180 463.799591,561.070801 
	C463.481750,561.047363 463.236633,560.901611 462.893127,560.202271 
	C462.567841,559.477051 462.360626,559.226990 462.100311,559.020935 
z"/>
<path fill="#3A2416" opacity="1.000000" stroke="none" 
	d="
M687.991089,710.016418 
	C668.175049,710.015625 648.840393,710.514282 629.544312,709.864624 
	C612.505310,709.290955 595.468872,707.821167 578.507385,706.027588 
	C564.691101,704.566589 550.932129,702.342834 537.261536,699.836487 
	C531.970154,698.866333 526.687378,696.743591 521.948547,694.146301 
	C516.059265,690.918335 516.858582,684.073425 522.830994,680.843140 
	C534.500793,674.531433 547.443970,672.891663 560.189819,671.146057 
	C576.912170,668.856079 593.794434,667.732971 610.608276,666.112671 
	C611.270386,666.048889 611.936646,666.008362 612.601624,665.998596 
	C635.714905,665.657898 658.850037,664.552063 681.935547,665.203003 
	C704.938232,665.851440 727.916138,667.983582 750.855469,670.021240 
	C762.046387,671.015320 773.200134,672.900085 784.223572,675.114319 
	C789.988037,676.272156 795.615601,678.629272 800.973938,681.148743 
	C806.575317,683.782410 806.586731,691.196899 800.970154,694.148926 
	C796.336182,696.584473 791.349854,698.922546 786.259277,699.810425 
	C770.284485,702.596619 754.242981,705.228271 738.120789,706.878723 
	C721.642578,708.565552 705.038330,709.021667 687.991089,710.016418 
z"/>
<path fill="#CE2D7D" opacity="1.000000" stroke="none" 
	d="
M463.989197,561.382324 
	C545.426331,561.047180 627.053040,561.022644 708.679749,561.000671 
	C726.504456,560.995850 744.329285,560.957275 762.153625,561.042053 
	C765.121277,561.056152 768.086365,561.625366 771.512085,562.394409 
	C771.552124,574.054688 766.182251,582.997620 758.765259,591.302429 
	C755.888306,593.647095 753.298340,595.825928 750.452637,597.614685 
	C747.445984,596.483276 744.696167,595.099548 741.943909,595.094604 
	C675.021362,594.973938 608.098389,594.941589 541.175781,595.048279 
	C527.388916,595.070251 513.602966,595.709290 499.816559,596.063965 
	C499.816559,596.063965 499.387970,596.025391 499.013397,595.787720 
	C498.379303,595.352173 498.098907,595.190613 497.797607,595.065369 
	C497.362610,594.741699 496.927643,594.417969 496.065948,593.822388 
	C495.380981,593.352905 495.101746,593.191467 494.801544,593.066345 
	C494.245026,592.615417 493.688538,592.164551 492.927124,591.239868 
	C492.569183,590.473877 492.363129,590.225464 492.104065,590.021057 
	C481.715302,582.228210 472.399994,573.412231 465.525970,562.249084 
	C465.319885,561.914429 464.638580,561.872375 463.989197,561.382324 
z"/>
<path fill="#AC3081" opacity="1.000000" stroke="none" 
	d="
M744.032715,523.915894 
	C741.434509,524.943848 738.840271,526.855896 736.237488,526.867676 
	C694.739075,527.055359 653.239502,527.000000 611.740234,527.000000 
	C559.407837,527.000000 507.075287,526.963196 454.743164,527.085876 
	C451.385284,527.093750 448.030334,528.334595 444.278442,529.068237 
	C443.882904,529.134583 443.942932,529.098633 443.837952,528.917480 
	C443.571228,528.452209 443.359314,528.212585 443.097229,528.017334 
	C443.097229,528.017334 442.978577,527.613586 442.851868,527.185181 
	C442.563721,526.467224 442.352051,526.220703 442.090210,526.017334 
	C442.043488,525.614746 441.996765,525.212097 441.839050,524.285645 
	C441.570526,523.471130 441.361938,523.223633 441.102264,523.019165 
	C441.102264,523.019165 440.983215,522.610474 440.855164,522.182495 
	C440.568420,521.468201 440.360138,521.224243 440.102264,521.022705 
	C440.102264,521.022705 439.981964,520.611206 439.854309,520.182678 
	C439.568604,519.468933 439.361267,519.225769 439.104645,519.024597 
	C436.478668,511.930450 433.852692,504.836304 431.616882,497.367493 
	C446.926575,496.993378 461.847626,497.093750 476.763611,496.863800 
	C478.555786,496.836151 480.320374,495.017517 482.097717,494.029022 
	C499.918213,499.910553 518.138367,503.580444 536.956177,503.944977 
	C561.258362,504.415771 584.718018,500.309174 607.795532,491.258301 
	C610.448975,492.331604 612.524597,493.865875 614.610901,493.880585 
	C638.532959,494.049347 662.457397,494.068939 686.378296,493.833923 
	C688.332642,493.814728 690.265747,491.638550 692.477051,490.688202 
	C696.024841,493.976227 698.887268,497.744720 702.658691,499.978577 
	C716.232239,508.018372 730.112549,515.540405 743.917236,523.422180 
	C743.957581,523.586304 744.032715,523.915894 744.032715,523.915894 
z"/>
<path fill="#4B388B" opacity="1.000000" stroke="none" 
	d="
M621.520081,334.234375 
	C606.465271,326.675568 590.917786,320.468414 574.223450,317.636536 
	C533.803650,310.780121 495.124817,315.175018 458.931213,335.625183 
	C457.181549,336.613739 454.872406,336.612152 452.410156,337.042358 
	C456.957336,329.989166 461.792450,322.871796 466.922852,315.974121 
	C470.375305,311.332428 474.127869,306.896667 477.979431,302.576752 
	C479.820221,300.512115 482.203217,298.930908 484.694061,297.358154 
	C485.957520,298.373993 486.777344,299.679108 487.794037,299.856598 
	C491.215790,300.454010 494.707397,300.953186 498.172607,300.955383 
	C586.740051,301.011566 675.307495,301.022186 763.874817,300.914093 
	C767.261841,300.909973 770.647339,299.647095 774.271484,298.982422 
	C774.509399,298.994141 774.985962,299.017639 775.135620,299.334564 
	C780.480713,309.039825 783.060486,319.088776 782.682190,330.000732 
	C782.010925,330.772736 781.564087,331.372192 780.689819,332.005005 
	C776.970886,332.358887 773.679749,332.954346 770.387817,332.958618 
	C723.523499,333.019318 676.659058,332.979156 629.794800,333.052765 
	C627.035950,333.057098 624.278320,333.822937 621.520081,334.234375 
z"/>
<path fill="#DF2C7C" opacity="1.000000" stroke="none" 
	d="
M499.993744,596.381836 
	C513.602966,595.709290 527.388916,595.070251 541.175781,595.048279 
	C608.098389,594.941589 675.021362,594.973938 741.943909,595.094604 
	C744.696167,595.099548 747.445984,596.483276 750.243042,597.868042 
	C738.897766,604.359680 727.894531,611.219604 716.009033,615.780090 
	C703.375305,620.627686 689.905212,623.295776 676.800293,626.915527 
	C673.454346,627.510071 670.077454,627.978943 666.784912,628.790222 
	C665.990540,628.985962 665.475464,630.315063 664.995178,631.516235 
	C644.020447,636.815125 622.470764,637.054138 601.075684,635.798645 
	C581.234802,634.634399 561.896057,629.799133 543.692627,621.349548 
	C535.071777,617.348022 526.329102,613.533936 518.036804,608.923950 
	C511.757050,605.432922 506.103302,600.815735 499.993744,596.381836 
z"/>
<path fill="#3D398C" opacity="1.000000" stroke="none" 
	d="
M774.033508,298.970764 
	C770.647339,299.647095 767.261841,300.909973 763.874817,300.914093 
	C675.307495,301.022186 586.740051,301.011566 498.172607,300.955383 
	C494.707397,300.953186 491.215790,300.454010 487.794037,299.856598 
	C486.777344,299.679108 485.957520,298.373993 484.994629,297.186707 
	C495.163177,288.805267 505.297333,280.706665 515.663086,272.916138 
	C518.490662,270.791046 522.014587,269.592529 525.735474,268.269653 
	C527.888489,269.047119 529.513672,269.883026 531.163513,269.934753 
	C536.730774,270.109314 542.318726,269.808350 547.871338,270.143402 
	C549.300293,270.229614 550.628601,271.982971 551.773438,273.143707 
	C551.041138,273.563049 550.538696,273.809174 549.693359,274.146790 
	C544.133972,277.069977 538.917542,279.901672 533.377136,282.828247 
	C530.217529,285.645996 527.381836,288.368835 524.414307,291.206970 
	C524.134827,291.514313 524.042114,291.730072 523.854858,292.079346 
	C523.492126,292.326691 523.334656,292.511566 523.322144,293.095093 
	C524.910278,294.351715 526.331238,295.836945 527.922852,296.050446 
	C532.177979,296.621277 536.506348,296.646332 541.188721,296.916321 
	C542.731445,296.592804 543.891174,296.241211 545.427734,295.881897 
	C546.809937,295.881805 547.815247,295.889435 549.201904,295.923035 
	C550.738159,295.596863 551.893066,295.244690 553.379028,294.828003 
	C554.801941,294.496185 555.893677,294.228882 557.236023,294.174133 
	C558.673523,294.219604 559.860474,294.052490 561.444458,293.878174 
	C563.164978,293.876373 564.488342,293.881775 566.194336,293.915283 
	C567.734802,293.589783 568.892639,293.236145 570.446533,292.874908 
	C572.162292,292.872314 573.482056,292.877319 575.158691,292.900421 
	C576.358582,292.575714 577.201660,292.232910 578.393433,291.880737 
	C579.439758,291.881348 580.137268,291.891296 581.213867,291.925964 
	C582.741272,291.601715 583.889771,291.252716 585.450378,290.894196 
	C587.510620,290.883850 589.158752,290.882996 591.161865,290.900269 
	C592.356750,290.579803 593.196472,290.241241 594.448181,289.892883 
	C596.507141,289.883667 598.154175,289.884216 600.118347,289.863525 
	C600.967468,289.528656 601.499390,289.215088 602.383301,288.890900 
	C603.439148,288.887848 604.143127,288.895386 605.263245,288.929871 
	C607.467529,288.598785 609.255737,288.240753 611.462708,287.867188 
	C624.195801,285.735168 636.546326,283.802124 648.799805,281.378326 
	C652.022583,280.740845 654.944946,278.584534 658.310181,276.994873 
	C659.614746,275.288513 660.614502,273.713013 662.064087,272.116516 
	C665.648865,272.396515 668.782776,272.945526 671.918823,272.958160 
	C691.729919,273.037842 711.542542,273.096497 731.352234,272.907959 
	C734.906860,272.874146 738.450195,271.658142 742.341675,271.063660 
	C746.627808,273.537903 750.830750,275.600433 754.460327,278.404907 
	C762.007629,284.236572 769.652283,290.082001 774.033508,298.970764 
z"/>
<path fill="#2E3B8E" opacity="1.000000" stroke="none" 
	d="
M552.003174,272.970490 
	C550.628601,271.982971 549.300293,270.229614 547.871338,270.143402 
	C542.318726,269.808350 536.730774,270.109314 531.163513,269.934753 
	C529.513672,269.883026 527.888489,269.047119 526.094482,268.199402 
	C525.988831,267.525238 526.140747,267.285553 526.813721,266.919556 
	C527.518372,266.561737 527.764587,266.350159 527.973511,266.095215 
	C532.431580,264.160065 536.936829,262.325928 541.339355,260.271667 
	C557.379211,252.787231 574.185486,247.473145 591.763855,246.133377 
	C611.865845,244.601288 632.086487,244.625580 652.555908,244.429901 
	C649.623413,245.491409 646.390625,246.096603 642.125000,246.895142 
	C649.118713,246.895142 655.103943,246.895142 661.089172,246.895142 
	C684.817505,247.648361 708.253357,250.869507 731.704956,255.933228 
	C728.580750,257.838623 725.304077,259.055756 721.330078,260.531921 
	C728.399231,264.108124 735.198975,267.548035 741.998779,270.987976 
	C738.450195,271.658142 734.906860,272.874146 731.352234,272.907959 
	C711.542542,273.096497 691.729919,273.037842 671.918823,272.958160 
	C668.782776,272.945526 665.648865,272.396515 661.854187,271.868988 
	C659.139587,270.413208 657.084717,269.183899 654.821411,267.663208 
	C651.403503,266.257233 648.194031,265.142578 644.622070,263.898926 
	C643.506531,263.622955 642.753540,263.475983 641.779419,263.185516 
	C641.039307,263.027100 640.520203,263.012207 639.612671,262.893677 
	C633.763062,262.212494 628.314758,261.356476 622.838684,261.105347 
	C598.393372,259.984314 574.815979,264.243835 552.003174,272.970490 
z"/>
<path fill="#3DC6EF" opacity="1.000000" stroke="none" 
	d="
M959.851929,524.498413 
	C953.537231,533.699341 944.360107,537.237549 934.287048,537.904602 
	C918.356140,538.959595 902.699402,537.019287 887.715637,530.995117 
	C880.704590,528.176331 878.175964,518.766174 883.907715,513.852356 
	C888.604553,509.825867 894.224182,506.582947 899.912170,504.075958 
	C907.952637,500.532227 916.327576,497.636047 924.751831,495.102631 
	C935.266968,491.940521 945.453979,494.042694 954.739258,499.403473 
	C961.535950,503.327454 964.080200,514.446594 960.703186,521.859863 
	C960.377136,522.575684 960.232727,523.374207 959.851929,524.498413 
z"/>
<path fill="#9A3182" opacity="1.000000" stroke="none" 
	d="
M481.849060,493.845703 
	C480.320374,495.017517 478.555786,496.836151 476.763611,496.863800 
	C461.847626,497.093750 446.926575,496.993378 431.543640,496.998138 
	C431.034058,496.304504 430.987885,495.605591 430.833130,494.334473 
	C430.562866,493.469513 430.349426,493.221191 430.084229,493.017334 
	C428.040863,482.346313 425.997253,471.675323 423.954315,461.004242 
	C423.619080,459.253174 423.286774,457.501526 422.977600,455.316986 
	C425.084534,455.900726 427.480804,456.546478 429.196381,457.997223 
	C437.758545,465.237915 445.584778,473.497131 454.754120,479.827515 
	C462.970459,485.499969 472.596344,489.130798 481.849060,493.845703 
z"/>
<path fill="#3DC6EF" opacity="1.000000" stroke="none" 
	d="
M977.080933,395.070068 
	C979.403381,402.341064 976.359619,409.127258 969.424866,410.762543 
	C958.571838,413.321808 947.729431,412.980286 937.415222,408.078613 
	C934.106934,406.506470 933.111633,402.659424 934.902283,399.564941 
	C938.613770,393.151184 945.490784,391.777924 951.539612,389.182861 
	C959.079712,385.948029 966.684509,386.507172 973.924927,390.117157 
	C975.361023,390.833221 976.024048,393.099792 977.080933,395.070068 
z"/>
<path fill="#2892CF" opacity="1.000000" stroke="none" 
	d="
M661.381348,246.688751 
	C655.103943,246.895142 649.118713,246.895142 642.125000,246.895142 
	C646.390625,246.096603 649.623413,245.491409 653.028442,244.528198 
	C658.494019,244.095367 663.787537,244.020584 669.541992,244.024887 
	C667.226501,244.896774 664.450073,245.689560 661.381348,246.688751 
z"/>
<path fill="#CE2D7D" opacity="1.000000" stroke="none" 
	d="
M462.091980,559.293579 
	C462.360626,559.226990 462.567841,559.477051 462.829895,559.991150 
	C462.653107,559.996216 462.368347,559.781250 462.091980,559.293579 
z"/>
<path fill="#BC2E7F" opacity="1.000000" stroke="none" 
	d="
M439.097839,519.294312 
	C439.361267,519.225769 439.568604,519.468933 439.835419,519.969177 
	C439.659790,519.977478 439.375397,519.770752 439.097839,519.294312 
z"/>
<path fill="#3D398C" opacity="1.000000" stroke="none" 
	d="
M527.713379,266.123108 
	C527.764587,266.350159 527.518372,266.561737 527.015076,266.837646 
	C527.014648,266.680603 527.233948,266.415802 527.713379,266.123108 
z"/>
<path fill="#DF2C7C" opacity="1.000000" stroke="none" 
	d="
M497.911499,595.313232 
	C498.098907,595.190613 498.379303,595.352173 498.807587,595.724976 
	C498.659393,595.786987 498.342407,595.674072 497.911499,595.313232 
z"/>
<path fill="#DF2C7C" opacity="1.000000" stroke="none" 
	d="
M494.914215,593.313965 
	C495.101746,593.191467 495.380981,593.352905 495.807190,593.725281 
	C495.659058,593.787170 495.342957,593.674377 494.914215,593.313965 
z"/>
<path fill="#DF2C7C" opacity="1.000000" stroke="none" 
	d="
M492.090759,590.293945 
	C492.363129,590.225464 492.569183,590.473877 492.830322,590.984375 
	C492.651398,590.990723 492.364441,590.778748 492.090759,590.293945 
z"/>
<path fill="#BC2E7F" opacity="1.000000" stroke="none" 
	d="
M440.096039,521.293152 
	C440.360138,521.224243 440.568420,521.468201 440.835938,521.970459 
	C440.659760,521.978882 440.374786,521.771240 440.096039,521.293152 
z"/>
<path fill="#BC2E7F" opacity="1.000000" stroke="none" 
	d="
M441.095154,523.291504 
	C441.361938,523.223633 441.570526,523.471130 441.836334,523.980591 
	C441.659149,523.987488 441.373596,523.775635 441.095154,523.291504 
z"/>
<path fill="#CE2D7D" opacity="1.000000" stroke="none" 
	d="
M459.091034,555.294373 
	C459.359131,555.225891 459.566833,555.473389 459.830688,555.983215 
	C459.653931,555.989746 459.368530,555.778015 459.091034,555.294373 
z"/>
<path fill="#CE2D7D" opacity="1.000000" stroke="none" 
	d="
M457.098267,552.293701 
	C457.365204,552.226990 457.570709,552.473938 457.832855,552.980469 
	C457.656647,552.986450 457.372406,552.775513 457.098267,552.293701 
z"/>
<path fill="#CE2D7D" opacity="1.000000" stroke="none" 
	d="
M456.101288,550.296753 
	C456.366913,550.227417 456.572083,550.469360 456.836243,550.966553 
	C456.660309,550.974976 456.375488,550.770325 456.101288,550.296753 
z"/>
<path fill="#CE2D7D" opacity="1.000000" stroke="none" 
	d="
M455.099487,548.296021 
	C455.364380,548.225037 455.570312,548.464966 455.836548,548.958984 
	C455.660828,548.968689 455.375397,548.766602 455.099487,548.296021 
z"/>
<path fill="#BC2E7F" opacity="1.000000" stroke="none" 
	d="
M443.090759,528.288940 
	C443.359314,528.212585 443.571228,528.452209 443.843811,528.951904 
	C443.664520,528.965271 443.374390,528.762939 443.090759,528.288940 
z"/>
<path fill="#BC2E7F" opacity="1.000000" stroke="none" 
	d="
M442.089233,526.289673 
	C442.352051,526.220703 442.563721,526.467224 442.836182,526.975403 
	C442.660828,526.983337 442.374512,526.772644 442.089233,526.289673 
z"/>
<path fill="#AC3081" opacity="1.000000" stroke="none" 
	d="
M430.089172,493.289307 
	C430.349426,493.221191 430.562866,493.469513 430.835236,493.983246 
	C430.662018,493.989868 430.378052,493.775604 430.089172,493.289307 
z"/>
<path fill="#5D3689" opacity="1.000000" stroke="none" 
	d="
M621.769531,334.486237 
	C624.278320,333.822937 627.035950,333.057098 629.794800,333.052765 
	C676.659058,332.979156 723.523499,333.019318 770.387817,332.958618 
	C773.679749,332.954346 776.970886,332.358887 780.606812,332.363220 
	C776.476196,345.057526 767.257202,354.309692 759.610718,364.968475 
	C757.634521,366.787018 755.919800,368.404022 753.765625,370.023102 
	C750.203003,370.350037 747.080505,370.949188 743.956604,370.956879 
	C716.239136,371.025238 688.521484,370.988831 660.803833,370.983337 
	C650.869812,355.697510 637.514343,344.072876 621.769531,334.486237 
z"/>
<path fill="#703586" opacity="1.000000" stroke="none" 
	d="
M660.907227,371.333374 
	C688.521484,370.988831 716.239136,371.025238 743.956604,370.956879 
	C747.080505,370.949188 750.203003,370.350037 753.577881,370.312134 
	C750.878418,373.939148 747.951294,377.300751 744.971436,380.615051 
	C737.334656,389.109009 729.674500,397.581940 721.754883,406.245972 
	C719.663879,408.306732 717.841675,410.184814 715.816284,411.752655 
	C713.042419,410.628876 710.486145,409.170837 707.898499,409.113007 
	C696.426941,408.856506 684.946472,409.001862 673.712036,409.001862 
	C672.983704,406.701385 672.351379,404.704254 671.719055,402.707123 
	C669.706116,391.828613 666.678528,381.300354 660.907227,371.333374 
z"/>
<path fill="#F6E92F" opacity="1.000000" stroke="none" 
	d="
M582.324646,354.621399 
	C589.819519,358.102875 593.618347,364.707550 596.257019,371.952759 
	C602.237000,388.372772 601.846375,404.788055 594.990417,420.896820 
	C592.292358,427.236206 588.452942,432.807129 581.481201,436.032349 
	C573.475525,431.193237 569.974548,423.762238 566.899658,415.624329 
	C565.997803,411.119537 565.121765,407.005219 564.277710,402.664154 
	C564.309692,402.437408 564.163879,402.003235 564.214355,401.575897 
	C564.174133,399.431488 564.083313,397.714417 564.058105,395.564148 
	C565.165833,388.449463 566.208008,381.768036 567.462708,374.811584 
	C570.604675,366.461090 574.825317,359.335358 582.324646,354.621399 
z"/>
<path fill="#9A3182" opacity="1.000000" stroke="none" 
	d="
M692.208740,490.464630 
	C690.265747,491.638550 688.332642,493.814728 686.378296,493.833923 
	C662.457397,494.068939 638.532959,494.049347 614.610901,493.880585 
	C612.524597,493.865875 610.448975,492.331604 608.161865,491.189209 
	C623.249390,483.804382 637.356934,474.976898 648.879822,462.513977 
	C652.589111,458.502014 655.774536,454.005646 659.569458,449.912598 
	C661.812500,451.061768 663.619446,452.678131 665.571167,452.877716 
	C671.992004,453.534393 678.465271,453.677612 684.843750,454.381561 
	C679.998535,464.870575 682.639160,474.197327 687.896545,483.579163 
	C689.370972,486.095062 690.789856,488.279846 692.208740,490.464630 
z"/>
<path fill="#843385" opacity="1.000000" stroke="none" 
	d="
M684.918396,454.018066 
	C678.465271,453.677612 671.992004,453.534393 665.571167,452.877716 
	C663.619446,452.678131 661.812500,451.061768 659.815491,449.653809 
	C668.098633,435.186340 672.312256,420.063538 671.658325,403.179993 
	C672.351379,404.704254 672.983704,406.701385 673.712036,409.001862 
	C684.946472,409.001862 696.426941,408.856506 707.898499,409.113007 
	C710.486145,409.170837 713.042419,410.628876 715.651489,412.038452 
	C707.414246,423.278961 699.138611,433.923401 690.597412,444.805725 
	C688.527344,448.035065 686.722839,451.026550 684.918396,454.018066 
z"/>
<path fill="#F6E92F" opacity="1.000000" stroke="none" 
	d="
M470.536255,358.016388 
	C472.130249,359.646454 474.019470,361.077637 475.272400,362.937469 
	C487.395874,380.933258 486.093536,417.574707 472.260193,434.837219 
	C468.784515,429.860718 465.866974,424.934265 462.885437,419.625305 
	C461.832764,413.928802 460.844116,408.614716 459.897888,402.851471 
	C459.972290,397.259644 460.004181,392.117035 460.149078,386.594604 
	C461.675842,376.082642 464.441833,366.443146 470.536255,358.016388 
z"/>
<path fill="#9A3182" opacity="1.000000" stroke="none" 
	d="
M470.290222,357.712952 
	C464.441833,366.443146 461.675842,376.082642 459.914185,386.308228 
	C457.860413,385.269043 456.264862,383.445221 454.425018,383.151489 
	C450.879272,382.585419 447.195465,382.884369 443.568909,382.824646 
	C445.214020,374.044434 447.845459,365.674469 454.354919,359.154205 
	C459.310516,354.190399 464.019440,353.775513 470.290222,357.712952 
z"/>
<path fill="#DF2C7C" opacity="1.000000" stroke="none" 
	d="
M462.949432,420.007751 
	C465.866974,424.934265 468.784515,429.860718 471.974365,435.018372 
	C465.438110,442.761566 457.713745,442.920532 451.948944,434.751923 
	C448.602570,430.010162 446.862762,424.134613 444.694916,418.542023 
	C446.670288,418.876648 448.329346,419.830017 450.035461,419.923431 
	C454.328796,420.158417 458.643372,420.005310 462.949432,420.007751 
z"/>
<path fill="#BC2E7F" opacity="1.000000" stroke="none" 
	d="
M443.373047,383.168335 
	C447.195465,382.884369 450.879272,382.585419 454.425018,383.151489 
	C456.264862,383.445221 457.860413,385.269043 459.801208,386.688019 
	C460.004181,392.117035 459.972290,397.259644 459.367126,402.781250 
	C453.307770,403.120056 447.821686,403.079865 442.335571,403.039673 
	C442.616119,396.530457 442.896667,390.021210 443.373047,383.168335 
z"/>
<path fill="#DF2C7C" opacity="1.000000" stroke="none" 
	d="
M566.925415,416.014771 
	C569.974548,423.762238 573.475525,431.193237 581.158203,436.135162 
	C574.193115,439.766418 566.987244,438.986298 561.499146,432.771790 
	C557.638123,428.399689 555.166199,422.800842 552.483826,417.348206 
	C557.570862,416.636047 562.248169,416.325409 566.925415,416.014771 
z"/>
<path fill="#9A3182" opacity="1.000000" stroke="none" 
	d="
M581.996338,354.399902 
	C574.825317,359.335358 570.604675,366.461090 566.987671,374.794495 
	C563.811035,375.030884 561.237183,375.390625 558.860840,374.862122 
	C557.092468,374.468842 555.580017,372.925140 553.953552,371.893799 
	C555.997131,358.564423 569.730103,349.786133 581.996338,354.399902 
z"/>
<path fill="#AC3081" opacity="1.000000" stroke="none" 
	d="
M553.636475,372.069702 
	C555.580017,372.925140 557.092468,374.468842 558.860840,374.862122 
	C561.237183,375.390625 563.811035,375.030884 566.775146,375.069519 
	C566.208008,381.768036 565.165833,388.449463 563.594360,395.567505 
	C560.906982,396.003510 558.747620,395.955566 556.591064,396.013794 
	C553.578735,396.095062 550.523804,396.368927 548.909119,392.964508 
	C550.379211,386.058197 551.849365,379.151886 553.636475,372.069702 
z"/>
<path fill="#CE2D7D" opacity="1.000000" stroke="none" 
	d="
M548.834351,393.428619 
	C550.523804,396.368927 553.578735,396.095062 556.591064,396.013794 
	C558.747620,395.955566 560.906982,396.003510 563.528809,396.000732 
	C564.083313,397.714417 564.174133,399.431488 564.109863,401.677551 
	C563.828308,402.508575 563.925293,402.736694 564.245728,402.890900 
	C565.121765,407.005219 565.997803,411.119537 566.899658,415.624329 
	C562.248169,416.325409 557.570862,416.636047 552.480225,416.979645 
	C550.964355,409.305969 549.861938,401.599365 548.834351,393.428619 
z"/>
<path fill="#CE2D7D" opacity="1.000000" stroke="none" 
	d="
M442.284546,403.492920 
	C447.821686,403.079865 453.307770,403.120056 459.324646,403.230469 
	C460.844116,408.614716 461.832764,413.928802 462.885437,419.625305 
	C458.643372,420.005310 454.328796,420.158417 450.035461,419.923431 
	C448.329346,419.830017 446.670288,418.876648 444.656372,418.179626 
	C443.626465,413.345062 442.929993,408.645630 442.284546,403.492920 
z"/>
<path fill="#2970B6" opacity="1.000000" stroke="none" 
	d="
M690.863037,444.567871 
	C699.138611,433.923401 707.414246,423.278961 715.854614,412.348724 
	C717.841675,410.184814 719.663879,408.306732 721.908752,406.542908 
	C725.040283,407.104828 727.748291,407.937225 730.457947,407.942566 
	C772.166199,408.024963 813.874756,408.020203 855.583069,407.950562 
	C858.183594,407.946228 860.782959,407.237366 863.382874,406.856323 
	C879.868774,413.151428 895.701477,420.778595 908.833984,432.743500 
	C913.061646,436.595306 915.537476,442.369812 918.451904,447.540283 
	C915.620056,447.543884 913.151672,447.042694 910.682007,447.035858 
	C888.517334,446.974457 866.352478,447.000061 844.187622,447.000000 
	C795.191650,446.999939 746.195618,447.030090 697.200012,446.896667 
	C695.085571,446.890930 692.975281,445.378448 690.863037,444.567871 
z"/>
<path fill="#297BBE" opacity="1.000000" stroke="none" 
	d="
M690.597412,444.805725 
	C692.975281,445.378448 695.085571,446.890930 697.200012,446.896667 
	C746.195618,447.030090 795.191650,446.999939 844.187622,447.000000 
	C866.352478,447.000061 888.517334,446.974457 910.682007,447.035858 
	C913.151672,447.042694 915.620056,447.543884 918.488770,447.894714 
	C920.650879,457.387054 916.255981,463.923004 909.000854,469.117981 
	C897.820312,477.123779 884.764038,480.388153 871.468384,483.545593 
	C871.552246,482.078156 871.947998,480.899902 872.442871,479.426422 
	C870.859558,479.252075 869.730103,479.019226 868.600525,479.018860 
	C811.154053,479.001465 753.707397,478.944031 696.261902,479.184509 
	C693.449341,479.196259 690.647705,481.833405 687.841003,483.248047 
	C682.639160,474.197327 679.998535,464.870575 684.843750,454.381592 
	C686.722839,451.026550 688.527344,448.035065 690.597412,444.805725 
z"/>
<path fill="#2959A4" opacity="1.000000" stroke="none" 
	d="
M759.872131,364.766907 
	C767.257202,354.309692 776.476196,345.057526 781.034241,332.329865 
	C781.564087,331.372192 782.010925,330.772736 782.866943,330.354736 
	C785.598694,331.357330 787.918579,332.886078 790.244019,332.894470 
	C830.663635,333.040436 871.084045,333.051422 911.503601,332.904999 
	C914.862000,332.892792 918.215515,331.541443 921.571289,330.812256 
	C927.068298,336.185242 933.057617,341.152435 937.917908,347.050079 
	C942.404114,352.493713 943.066284,359.422577 941.028809,366.738922 
	C937.870178,367.057709 935.373169,367.003906 932.876221,367.003693 
	C877.598206,366.998871 822.320129,367.027863 767.042358,366.905426 
	C764.650757,366.900146 762.262146,365.511261 759.872131,364.766907 
z"/>
<path fill="#2964AC" opacity="1.000000" stroke="none" 
	d="
M759.610718,364.968475 
	C762.262146,365.511261 764.650757,366.900146 767.042358,366.905426 
	C822.320129,367.027863 877.598206,366.998871 932.876221,367.003693 
	C935.373169,367.003906 937.870178,367.057709 940.865845,367.122223 
	C940.518250,371.972565 936.789368,374.470642 932.808167,375.290710 
	C921.469727,377.626495 909.987366,379.273987 898.543823,381.079468 
	C896.425842,381.413605 894.224731,381.220947 891.257080,380.964966 
	C884.513916,380.854736 878.575500,381.050995 872.637146,381.247284 
	C871.443359,381.330719 870.249512,381.414154 868.331421,381.117279 
	C855.200378,380.587616 842.793701,380.425171 830.386536,380.330505 
	C829.810608,380.326141 829.230164,380.928802 828.651794,381.248718 
	C826.029114,381.563843 823.381836,381.750153 820.793335,382.244202 
	C819.332031,382.523163 817.967285,383.308502 816.559082,383.865723 
	C817.506287,385.203247 818.157104,387.163025 819.448425,387.778015 
	C828.267639,391.978241 837.180054,395.991577 846.147217,399.869232 
	C851.608459,402.230865 857.221008,404.242828 863.074219,406.634094 
	C860.782959,407.237366 858.183594,407.946228 855.583069,407.950562 
	C813.874756,408.020203 772.166199,408.024963 730.457947,407.942566 
	C727.748291,407.937225 725.040283,407.104828 722.177612,406.360199 
	C729.674500,397.581940 737.334656,389.109009 744.971436,380.615051 
	C747.951294,377.300751 750.878418,373.939148 754.017334,370.310059 
	C755.919800,368.404022 757.634521,366.787018 759.610718,364.968475 
z"/>
<path fill="#2985C5" opacity="1.000000" stroke="none" 
	d="
M687.896545,483.579163 
	C690.647705,481.833405 693.449341,479.196259 696.261902,479.184509 
	C753.707397,478.944031 811.154053,479.001465 868.600525,479.018860 
	C869.730103,479.019226 870.859558,479.252075 872.442871,479.426422 
	C871.947998,480.899902 871.552246,482.078156 871.088440,483.588013 
	C851.495239,487.929779 831.962585,491.903839 812.454102,495.993683 
	C809.875732,496.534241 807.327942,497.461945 804.928162,498.563629 
	C799.609680,501.005127 798.948120,503.565094 803.152222,507.496887 
	C807.724670,511.773010 812.848816,515.459229 817.473633,519.695007 
	C794.796448,519.660339 772.378052,519.323425 749.959290,519.018127 
	C746.974121,518.977478 744.152161,519.334045 743.876892,523.258057 
	C730.112549,515.540405 716.232239,508.018372 702.658691,499.978577 
	C698.887268,497.744720 696.024841,493.976227 692.477051,490.688202 
	C690.789856,488.279846 689.370972,486.095062 687.896545,483.579163 
z"/>
<path fill="#2A4E9C" opacity="1.000000" stroke="none" 
	d="
M921.335632,330.537659 
	C918.215515,331.541443 914.862000,332.892792 911.503601,332.904999 
	C871.084045,333.051422 830.663635,333.040436 790.244019,332.894470 
	C787.918579,332.886078 785.598694,331.357330 783.091431,330.182159 
	C783.060486,319.088776 780.480713,309.039825 775.480164,299.101440 
	C777.636230,298.367218 779.597046,298.026154 781.558472,298.022888 
	C804.260803,297.985107 826.963318,298.016998 849.665588,297.967804 
	C851.804504,297.963196 854.625793,298.832916 854.977905,295.204285 
	C877.779480,305.455475 900.198364,316.428436 921.335632,330.537659 
z"/>
<path fill="#2892CF" opacity="1.000000" stroke="none" 
	d="
M743.917236,523.422180 
	C744.152161,519.334045 746.974121,518.977478 749.959290,519.018127 
	C772.378052,519.323425 794.796448,519.660339 817.657104,519.982910 
	C836.313354,529.813110 854.688354,539.433655 870.043762,553.623657 
	C872.031555,555.460571 872.754517,558.666138 873.669922,561.538330 
	C871.407532,561.231201 869.540466,560.100342 867.669373,560.093689 
	C836.674805,559.984131 805.679626,560.015747 774.515259,560.015747 
	C774.022217,558.533813 773.214355,556.105713 772.406494,553.677612 
	C769.741821,540.969238 760.682007,533.592712 750.364502,527.279907 
	C748.519348,526.150940 746.599854,525.143494 744.373657,523.997925 
	C744.032715,523.915894 743.957581,523.586304 743.917236,523.422180 
z"/>
<path fill="#289DD7" opacity="1.000000" stroke="none" 
	d="
M772.350220,553.904785 
	C773.214355,556.105713 774.022217,558.533813 774.515259,560.015747 
	C805.679626,560.015747 836.674805,559.984131 867.669373,560.093689 
	C869.540466,560.100342 871.407532,561.231201 873.656250,561.927612 
	C871.674744,565.132751 869.858093,568.966003 866.859802,571.244263 
	C852.051941,582.496216 835.282043,590.050476 817.440186,595.728271 
	C818.192627,591.921509 815.872131,591.974304 813.573425,592.002991 
	C796.523865,592.215759 779.474487,592.457153 762.424316,592.574158 
	C761.303650,592.581848 760.176392,591.637939 759.052246,591.136658 
	C766.182251,582.997620 771.552124,574.054688 771.923767,562.433960 
	C771.981506,560.646240 772.086975,559.275391 772.271729,557.148926 
	C772.266907,555.939453 772.182861,555.485474 772.098816,555.031555 
	C772.246643,554.749695 772.311707,554.449829 772.350220,553.904785 
z"/>
<path fill="#2A4494" opacity="1.000000" stroke="none" 
	d="
M854.664185,295.020386 
	C854.625793,298.832916 851.804504,297.963196 849.665588,297.967804 
	C826.963318,298.016998 804.260803,297.985107 781.558472,298.022888 
	C779.597046,298.026154 777.636230,298.367218 775.330566,298.784515 
	C774.985962,299.017639 774.509399,298.994141 774.271484,298.982452 
	C769.652283,290.082001 762.007629,284.236572 754.460327,278.404907 
	C750.830750,275.600433 746.627808,273.537903 742.341675,271.063660 
	C735.198975,267.548035 728.399231,264.108124 721.330078,260.531921 
	C725.304077,259.055756 728.580750,257.838623 731.955933,256.244141 
	C740.000854,257.309235 748.036255,258.380280 755.877686,260.260437 
	C785.004517,267.244385 813.203857,277.018402 840.604126,289.114624 
	C845.143555,291.118622 849.766296,292.933990 854.664185,295.020386 
z"/>
<path fill="#28A6DE" opacity="1.000000" stroke="none" 
	d="
M758.765259,591.302429 
	C760.176392,591.637939 761.303650,592.581848 762.424316,592.574158 
	C779.474487,592.457153 796.523865,592.215759 813.573425,592.002991 
	C815.872131,591.974304 818.192627,591.921509 817.056213,595.773193 
	C806.315063,599.768799 795.740479,603.778564 784.921082,606.954407 
	C752.279846,616.535583 718.822388,622.016968 685.108826,626.088013 
	C682.638367,626.386353 680.166626,626.673828 677.247925,626.940979 
	C689.905212,623.295776 703.375305,620.627686 716.009033,615.780090 
	C727.894531,611.219604 738.897766,604.359680 750.498718,598.258057 
	C753.298340,595.825928 755.888306,593.647095 758.765259,591.302429 
z"/>
<path fill="#2959A4" opacity="1.000000" stroke="none" 
	d="
M829.122681,381.340851 
	C829.230164,380.928802 829.810608,380.326141 830.386536,380.330505 
	C842.793701,380.425171 855.200378,380.587616 867.992188,380.985474 
	C855.449402,381.300323 842.521484,381.366638 829.122681,381.340851 
z"/>
<path fill="#2959A4" opacity="1.000000" stroke="none" 
	d="
M873.087280,381.346130 
	C878.575500,381.050995 884.513916,380.854736 890.800110,380.917725 
	C885.277771,381.266296 879.407654,381.355652 873.087280,381.346130 
z"/>
<path fill="#CE2D7D" opacity="1.000000" stroke="none" 
	d="
M771.919495,555.209167 
	C772.182861,555.485474 772.266907,555.939453 772.289062,556.736206 
	C772.064819,556.514893 771.902466,555.950867 771.919495,555.209167 
z"/>
<path fill="#B6B7D5" opacity="1.000000" stroke="none" 
	d="
M640.001160,262.997314 
	C640.520203,263.012207 641.039307,263.027100 641.935303,263.472809 
	C643.203064,263.945038 644.093872,263.986481 644.984619,264.027954 
	C648.194031,265.142578 651.403503,266.257233 654.668945,267.998718 
	C652.749084,269.318726 650.820435,270.395111 648.789978,270.644897 
	C631.057190,272.826324 613.299072,274.801270 595.562683,276.954163 
	C578.313293,279.047943 561.092224,281.380676 543.830322,283.361237 
	C540.521484,283.740845 537.080872,282.972229 533.701050,282.733368 
	C538.917542,279.901672 544.133972,277.069977 549.951355,274.374268 
	C554.601074,274.129547 558.659119,273.827271 562.697144,273.354492 
	C580.502991,271.269775 598.318054,269.252502 616.098450,266.966919 
	C624.103821,265.937866 632.035828,264.338104 640.001160,262.997314 
z"/>
<path fill="#8F8FBE" opacity="1.000000" stroke="none" 
	d="
M533.377136,282.828247 
	C537.080872,282.972229 540.521484,283.740845 543.830322,283.361237 
	C561.092224,281.380676 578.313293,279.047943 595.562683,276.954163 
	C613.299072,274.801270 631.057190,272.826324 648.789978,270.644897 
	C650.820435,270.395111 652.749084,269.318726 654.877441,268.290100 
	C657.084717,269.183899 659.139587,270.413208 661.404297,271.890015 
	C660.614502,273.713013 659.614746,275.288513 658.034546,276.712769 
	C651.722717,277.006104 645.974182,277.294464 640.263184,277.923798 
	C621.136292,280.031616 602.023071,282.263336 582.904175,284.443726 
	C563.451782,286.662140 543.998840,288.875885 524.546143,291.091675 
	C527.381836,288.368835 530.217529,285.645996 533.377136,282.828247 
z"/>
<path fill="#6561A3" opacity="1.000000" stroke="none" 
	d="
M524.414307,291.206970 
	C543.998840,288.875885 563.451782,286.662140 582.904175,284.443726 
	C602.023071,282.263336 621.136292,280.031616 640.263184,277.923798 
	C645.974182,277.294464 651.722717,277.006104 657.729675,276.843628 
	C654.944946,278.584534 652.022583,280.740845 648.799805,281.378326 
	C636.546326,283.802124 624.195801,285.735168 611.156616,287.669464 
	C608.570190,287.959137 606.708618,288.431030 604.847107,288.902924 
	C604.143127,288.895386 603.439148,288.887848 602.172729,288.748657 
	C601.007263,289.039642 600.404236,289.462189 599.801208,289.884766 
	C598.154175,289.884216 596.507141,289.883667 594.206665,289.715271 
	C592.637817,289.992310 591.722290,290.437225 590.806824,290.882141 
	C589.158752,290.882996 587.510620,290.883850 585.182861,290.703064 
	C583.280396,290.981354 582.057617,291.441284 580.834839,291.901245 
	C580.137268,291.891296 579.439758,291.881348 578.149536,291.705200 
	C576.638550,291.986816 575.720154,292.434570 574.801819,292.882324 
	C573.482056,292.877319 572.162292,292.872314 570.175659,292.686890 
	C568.276428,292.966705 567.044128,293.426910 565.811768,293.887146 
	C564.488342,293.881775 563.164978,293.876373 561.182983,293.690857 
	C559.344727,293.661011 558.165100,293.811279 556.985474,293.961578 
	C555.893677,294.228882 554.801941,294.496185 553.108521,294.639496 
	C551.278076,294.976044 550.049316,295.436554 548.820496,295.897064 
	C547.815247,295.889435 546.809937,295.881805 545.156250,295.694733 
	C543.273682,295.972931 542.039673,296.430603 540.805603,296.888245 
	C536.506348,296.646332 532.177979,296.621277 527.922852,296.050446 
	C526.331238,295.836945 524.910278,294.351715 523.463806,292.982269 
	C523.676758,292.333405 523.839539,292.150513 524.004456,291.969513 
	C524.042114,291.730072 524.134827,291.514313 524.414307,291.206970 
z"/>
<path fill="#DADBEA" opacity="1.000000" stroke="none" 
	d="
M639.612671,262.893646 
	C632.035828,264.338104 624.103821,265.937866 616.098450,266.966919 
	C598.318054,269.252502 580.502991,271.269775 562.697144,273.354492 
	C558.659119,273.827271 554.601074,274.129547 550.294189,274.282776 
	C550.538696,273.809174 551.041138,273.563049 551.773438,273.143707 
	C574.815979,264.243835 598.393372,259.984314 622.838684,261.105347 
	C628.314758,261.356476 633.763062,262.212494 639.612671,262.893646 
z"/>
<path fill="#4B388B" opacity="1.000000" stroke="none" 
	d="
M605.263245,288.929871 
	C606.708618,288.431030 608.570190,287.959137 610.737793,287.684998 
	C609.255737,288.240753 607.467529,288.598785 605.263245,288.929871 
z"/>
<path fill="#4B388B" opacity="1.000000" stroke="none" 
	d="
M541.188721,296.916321 
	C542.039673,296.430603 543.273682,295.972931 544.779297,295.702454 
	C543.891174,296.241211 542.731445,296.592804 541.188721,296.916321 
z"/>
<path fill="#4B388B" opacity="1.000000" stroke="none" 
	d="
M549.201904,295.923035 
	C550.049316,295.436554 551.278076,294.976044 552.777466,294.704041 
	C551.893066,295.244690 550.738159,295.596863 549.201904,295.923035 
z"/>
<path fill="#4B388B" opacity="1.000000" stroke="none" 
	d="
M557.236023,294.174133 
	C558.165100,293.811279 559.344727,293.661011 560.785889,293.698059 
	C559.860474,294.052490 558.673523,294.219604 557.236023,294.174133 
z"/>
<path fill="#4B388B" opacity="1.000000" stroke="none" 
	d="
M566.194336,293.915283 
	C567.044128,293.426910 568.276428,292.966705 569.779663,292.694489 
	C568.892639,293.236145 567.734802,293.589783 566.194336,293.915283 
z"/>
<path fill="#4B388B" opacity="1.000000" stroke="none" 
	d="
M581.213867,291.925964 
	C582.057617,291.441284 583.280396,290.981354 584.770691,290.712585 
	C583.889771,291.252716 582.741272,291.601715 581.213867,291.925964 
z"/>
<path fill="#4B388B" opacity="1.000000" stroke="none" 
	d="
M591.161865,290.900269 
	C591.722290,290.437225 592.637817,289.992310 593.794800,289.725037 
	C593.196472,290.241241 592.356750,290.579803 591.161865,290.900269 
z"/>
<path fill="#4B388B" opacity="1.000000" stroke="none" 
	d="
M575.158691,292.900421 
	C575.720154,292.434570 576.638550,291.986816 577.800781,291.714569 
	C577.201660,292.232910 576.358582,292.575714 575.158691,292.900421 
z"/>
<path fill="#4B388B" opacity="1.000000" stroke="none" 
	d="
M600.118347,289.863495 
	C600.404236,289.462189 601.007263,289.039642 601.820801,288.759277 
	C601.499390,289.215088 600.967468,289.528656 600.118347,289.863495 
z"/>
<path fill="#8F8FBE" opacity="1.000000" stroke="none" 
	d="
M523.854858,292.079346 
	C523.839539,292.150513 523.676758,292.333405 523.374512,292.630981 
	C523.334656,292.511566 523.492126,292.326691 523.854858,292.079346 
z"/>
<path fill="#DADBEA" opacity="1.000000" stroke="none" 
	d="
M644.622070,263.898926 
	C644.093872,263.986481 643.203064,263.945038 642.156372,263.616302 
	C642.753540,263.475983 643.506531,263.622955 644.622070,263.898926 
z"/>
<path fill="#AC3081" opacity="1.000000" stroke="none" 
	d="
M564.277710,402.664154 
	C563.925293,402.736694 563.828308,402.508575 564.059326,402.104858 
	C564.163879,402.003235 564.309692,402.437408 564.277710,402.664154 
z"/>
</svg>