<svg version="1.1" id="Layer_1" xmlns="http://www.w3.org/2000/svg" xmlns:xlink="http://www.w3.org/1999/xlink" x="0px" y="0px"
	 width="100%" viewBox="0 0 1080 1080" enable-background="new 0 0 1080 1080" xml:space="preserve">
<path fill="#000000" opacity="1.000000" stroke="none" 
	d="
M624.000000,1081.000000 
	C416.023956,1081.000000 208.547882,1081.000000 1.035917,1081.000000 
	C1.035917,721.065491 1.035917,361.130981 1.035917,1.098230 
	C360.892975,1.098230 720.785950,1.098230 1080.839478,1.098230 
	C1080.839478,360.999939 1080.839478,720.999939 1080.839478,1081.000000 
	C928.797180,1081.000000 776.648621,1081.000000 624.000000,1081.000000 
M702.998779,595.500000 
	C702.997925,540.522217 703.037537,485.544373 702.979675,430.566650 
	C702.949280,401.678925 680.415833,379.035767 651.683655,379.018250 
	C577.879761,378.973297 504.075836,378.972137 430.271973,379.018921 
	C401.485413,379.037170 379.019257,401.651337 379.010254,430.518707 
	C378.987244,504.156006 378.985474,577.793274 379.011719,651.430603 
	C379.022095,680.517944 401.540619,702.974365 430.733612,702.986877 
	C504.204315,703.018433 577.674988,703.017090 651.145691,702.987549 
	C680.541809,702.975708 702.944946,680.464844 702.991760,650.978271 
	C703.020630,632.818909 702.998230,614.659424 702.998779,595.500000 
z"/>
<path fill="#222222" opacity="1.000000" stroke="none" 
	d="
M702.998779,596.000000 
	C702.998230,614.659424 703.020630,632.818909 702.991760,650.978271 
	C702.944946,680.464844 680.541809,702.975708 651.145691,702.987549 
	C577.674988,703.017090 504.204315,703.018433 430.733612,702.986877 
	C401.540619,702.974365 379.022095,680.517944 379.011719,651.430603 
	C378.985474,577.793274 378.987244,504.156006 379.010254,430.518707 
	C379.019257,401.651337 401.485413,379.037170 430.271973,379.018921 
	C504.075836,378.972137 577.879761,378.973297 651.683655,379.018250 
	C680.415833,379.035767 702.949280,401.678925 702.979675,430.566650 
	C703.037537,485.544373 702.997925,540.522217 702.998779,596.000000 
M570.704285,448.827881 
	C562.817200,447.486084 554.930115,446.144318 546.386169,444.420776 
	C536.101807,444.098389 525.817444,443.776031 514.544922,443.280487 
	C476.518555,441.260773 445.298004,453.860687 422.791870,486.488434 
	C416.031799,497.143707 411.196869,508.645325 409.631317,521.150818 
	C408.657013,528.933838 409.156342,536.901306 408.934052,545.713806 
	C410.050995,560.477844 414.260925,574.195435 422.877625,587.120361 
	C426.656342,591.863953 430.435028,596.607483 434.588837,601.945374 
	C447.381561,615.125000 462.667053,623.843567 480.577576,628.104858 
	C496.457794,631.883118 512.224243,630.175232 528.718811,627.763916 
	C531.824341,627.460449 534.929932,627.156982 538.745544,626.909790 
	C539.445801,626.797791 540.145996,626.685791 541.636475,626.637085 
	C542.131714,626.467957 542.626953,626.298828 543.895142,626.187683 
	C568.763245,623.254761 593.273743,618.558777 616.886658,610.092529 
	C624.023071,607.533875 630.745789,603.723694 637.454285,600.108826 
	C641.051392,598.170654 640.891052,594.787415 638.326172,592.104004 
	C635.944092,589.611938 633.160522,587.317200 630.160461,585.638489 
	C622.321350,581.252136 614.221375,577.333984 606.340393,573.018860 
	C604.909546,572.235413 604.024231,570.455566 602.886963,569.135681 
	C604.299255,568.112610 605.571777,566.607971 607.148315,566.150452 
	C613.699158,564.249329 620.368774,562.761780 626.944153,560.939514 
	C636.392822,558.321045 646.139282,556.288513 654.045654,549.960205 
	C660.190857,545.041565 660.482239,538.611938 654.735779,533.275330 
	C652.210815,530.930420 649.245239,528.794556 646.103027,527.433228 
	C638.786621,524.263367 631.232117,521.645630 623.794312,518.752258 
	C621.017151,517.671997 618.296326,516.447021 615.549805,515.288025 
	C615.667725,514.802246 615.785583,514.316528 615.903503,513.830811 
	C617.475891,513.458862 619.030029,512.918945 620.624084,512.745544 
	C626.252014,512.133301 631.927063,511.875031 637.521851,511.056305 
	C645.079651,509.950287 652.715759,508.957245 660.068359,506.984344 
	C668.342468,504.764191 669.939575,498.973663 664.608276,492.238495 
	C662.672607,489.793121 660.384155,487.269653 657.694580,485.837311 
	C642.296875,477.636963 627.091309,468.915436 611.105835,462.030029 
	C598.362305,456.541077 584.597595,453.423004 571.290405,449.318573 
	C571.290405,449.318573 571.249329,449.274353 570.704285,448.827881 
M561.759277,664.168640 
	C569.765991,662.742615 577.794861,661.423767 585.757751,659.784912 
	C587.085205,659.511719 588.126038,657.845642 589.299316,656.823242 
	C588.157349,655.723022 587.194092,654.229797 585.833130,653.611328 
	C583.585510,652.589722 581.118835,651.731323 578.679016,651.502625 
	C561.657166,649.906494 544.639343,647.700562 527.579041,647.248901 
	C512.003052,646.836609 496.349945,648.051514 480.780945,649.218323 
	C473.374054,649.773376 466.056030,651.761108 458.766327,653.404053 
	C457.473663,653.695435 455.647400,655.484253 455.647766,656.580994 
	C455.648163,657.720520 457.364563,659.367249 458.687286,659.890747 
	C461.288544,660.920227 464.103271,661.617554 466.888794,661.937134 
	C477.445221,663.148254 488.015472,664.936523 498.598602,665.069275 
	C519.344788,665.329407 540.103027,664.624268 561.759277,664.168640 
M655.661011,582.407593 
	C657.645325,581.610291 660.270752,581.343201 661.468384,579.895203 
	C663.417358,577.538879 665.880188,574.151672 665.438354,571.679993 
	C664.989502,569.169312 661.437561,567.041138 658.937683,565.151367 
	C657.893005,564.361633 656.044678,564.372437 654.581909,564.442078 
	C646.583618,564.822876 639.265076,567.446350 632.757996,572.003723 
	C628.435730,575.030884 628.708496,578.527832 633.798035,579.783508 
	C640.621582,581.466980 647.798828,581.716980 655.661011,582.407593 
M666.003967,512.829163 
	C663.231995,513.875183 660.396667,514.786804 657.724609,516.045105 
	C656.868225,516.448303 655.867004,517.851196 655.981567,518.645325 
	C656.098816,519.457031 657.410950,520.496948 658.363403,520.711426 
	C661.083496,521.324036 663.888855,521.892395 666.656372,521.872681 
	C669.922485,521.849426 673.474792,520.836731 673.408142,516.886108 
	C673.343384,513.046021 669.935974,512.617676 666.003967,512.829163 
z"/>
<path fill="#3B2417" opacity="1.000000" stroke="none" 
	d="
M408.994263,544.786011 
	C409.156342,536.901306 408.657013,528.933838 409.631317,521.150818 
	C411.196869,508.645325 416.031799,497.143707 423.304657,486.180237 
	C426.399292,484.760376 428.974854,483.633850 431.564056,482.539551 
	C449.941345,474.772949 468.755005,474.479706 488.149292,479.479858 
	C493.593201,481.956085 499.028381,483.745911 503.856934,486.572205 
	C519.175781,495.538605 534.167419,513.661133 523.052979,538.223999 
	C512.718689,555.362549 496.922333,563.540894 478.255402,566.375305 
	C451.839355,570.386414 427.889862,565.418823 408.994263,544.786011 
M467.735321,513.702393 
	C467.409241,520.344604 468.193848,526.741882 472.566528,532.098206 
	C475.284119,535.427185 478.610687,537.374939 483.707031,534.940552 
	C492.278442,528.601074 493.173126,519.557312 492.021851,510.083374 
	C491.301575,504.155914 489.649933,498.377289 482.857941,495.151611 
	C478.595490,493.740662 474.793488,495.154358 472.933136,498.750854 
	C470.643768,503.176788 469.555664,508.224091 467.735321,513.702393 
M416.034637,517.916016 
	C417.278687,522.954468 417.885315,528.272522 419.939148,532.955872 
	C422.164642,538.030579 426.233795,538.212830 431.078400,533.924438 
	C437.378845,524.103699 437.352203,513.658264 433.759247,503.045532 
	C433.030365,500.892517 430.944305,499.199005 428.995911,496.749084 
	C424.596527,494.359772 421.423920,496.867645 420.141449,500.335449 
	C418.168152,505.671265 417.410583,511.456757 416.034637,517.916016 
z"/>
<path fill="#AF2F80" opacity="1.000000" stroke="none" 
	d="
M408.964172,545.249878 
	C427.889862,565.418823 451.839355,570.386414 478.255402,566.375305 
	C496.922333,563.540894 512.718689,555.362549 523.483032,538.228394 
	C527.783752,538.625977 531.482361,539.327576 535.027771,540.365479 
	C534.057312,544.191833 533.239990,547.681885 532.457642,551.557129 
	C533.857056,558.060913 537.288879,562.933411 542.487793,566.141968 
	C550.471008,571.068787 558.776367,575.473511 566.972168,580.299072 
	C566.999390,580.498230 567.042664,580.897949 566.790955,581.198364 
	C564.344116,581.998779 562.151428,582.919617 559.953430,582.932739 
	C540.829407,583.047485 521.704407,582.999634 502.579742,583.000000 
	C478.632324,583.000427 454.684875,582.991821 430.737457,583.011780 
	C427.599884,583.014404 424.225800,582.616882 422.724762,586.473755 
	C414.260925,574.195435 410.050995,560.477844 408.964172,545.249878 
z"/>
<path fill="#D12C7D" opacity="1.000000" stroke="none" 
	d="
M528.019958,627.751282 
	C512.224243,630.175232 496.457794,631.883118 480.577576,628.104858 
	C462.667053,623.843567 447.381561,615.125000 434.810516,601.474243 
	C438.585754,600.335754 442.137573,599.098633 445.693176,599.087830 
	C488.738831,598.956787 531.785095,599.006653 574.854492,599.371216 
	C572.433472,608.949463 565.691223,614.478027 557.546021,617.827026 
	C547.963806,621.766968 537.883972,624.496704 528.019958,627.751282 
z"/>
<path fill="#44388A" opacity="1.000000" stroke="none" 
	d="
M487.862976,479.267883 
	C468.755005,474.479706 449.941345,474.772949 431.564056,482.539551 
	C428.974854,483.633850 426.399292,484.760376 423.460358,485.860535 
	C445.298004,453.860687 476.518555,441.260773 515.397339,443.390747 
	C526.527161,444.280823 536.804626,445.060638 547.441284,445.890869 
	C549.203003,446.269043 550.605469,446.596832 552.049561,447.292664 
	C554.016663,449.478760 555.670471,451.787445 557.914551,453.030457 
	C567.975586,458.603302 577.606689,464.426422 579.521790,477.009979 
	C551.068054,477.005493 523.082031,476.947723 495.097137,477.099579 
	C492.681915,477.112640 490.274200,478.512329 487.862976,479.267883 
M517.140747,452.474518 
	C498.381500,447.311798 480.579346,450.298248 462.689667,458.960297 
	C461.951294,459.342682 461.053009,459.570221 460.504639,460.136566 
	C458.876892,461.817657 457.386932,463.632172 455.843170,465.394562 
	C457.974731,465.909943 460.155792,467.015259 462.229523,466.841278 
	C472.659607,465.966187 483.089905,464.970398 493.464569,463.597229 
	C501.685760,462.509125 509.854034,460.946533 517.977661,459.265472 
	C519.409485,458.969147 520.505859,457.051605 521.757202,455.882751 
	C520.422729,454.828613 519.088257,453.774475 517.140747,452.474518 
z"/>
<path fill="#C02E7E" opacity="1.000000" stroke="none" 
	d="
M574.831177,599.009460 
	C531.785095,599.006653 488.738831,598.956787 445.693176,599.087830 
	C442.137573,599.098633 438.585754,600.335754 434.622955,601.177124 
	C430.435028,596.607483 426.656342,591.863953 422.801208,586.797058 
	C424.225800,582.616882 427.599884,583.014404 430.737457,583.011780 
	C454.684875,582.991821 478.632324,583.000427 502.579742,583.000000 
	C521.704407,582.999634 540.829407,583.047485 559.953430,582.932739 
	C562.151428,582.919617 564.344116,581.998779 567.120422,581.296631 
	C574.995728,586.192993 577.243225,591.840515 574.831177,599.009460 
z"/>
<path fill="#3BBCE4" opacity="1.000000" stroke="none" 
	d="
M571.286194,449.252502 
	C584.597595,453.423004 598.362305,456.541077 611.105835,462.030029 
	C627.091309,468.915436 642.296875,477.636963 657.694580,485.837311 
	C660.384155,487.269653 662.672607,489.793121 664.608276,492.238495 
	C669.939575,498.973663 668.342468,504.764191 660.068359,506.984344 
	C652.715759,508.957245 645.079651,509.950287 637.521851,511.056305 
	C631.927063,511.875031 626.252014,512.133301 620.624084,512.745544 
	C619.030029,512.918945 617.475891,513.458862 615.903503,513.830811 
	C615.785583,514.316528 615.667725,514.802246 615.549805,515.288025 
	C618.296326,516.447021 621.017151,517.671997 623.794312,518.752258 
	C631.232117,521.645630 638.786621,524.263367 646.103027,527.433228 
	C649.245239,528.794556 652.210815,530.930420 654.735779,533.275330 
	C660.482239,538.611938 660.190857,545.041565 654.045654,549.960205 
	C646.139282,556.288513 636.392822,558.321045 626.944153,560.939514 
	C620.368774,562.761780 613.699158,564.249329 607.148315,566.150452 
	C605.571777,566.607971 604.299255,568.112610 602.886963,569.135742 
	C604.024231,570.455566 604.909546,572.235413 606.340393,573.018860 
	C614.221375,577.333984 622.321350,581.252136 630.160461,585.638489 
	C633.160522,587.317200 635.944092,589.611938 638.326172,592.104004 
	C640.891052,594.787415 641.051392,598.170654 637.454285,600.108826 
	C630.745789,603.723694 624.023071,607.533875 616.886658,610.092529 
	C593.273743,618.558777 568.763245,623.254761 543.759216,625.939941 
	C544.074463,625.494507 544.507812,625.221375 544.979370,625.109863 
	C561.925476,621.103699 579.029541,617.656799 595.765015,612.910034 
	C605.418457,610.172058 614.943481,606.251526 622.527344,599.018250 
	C625.316284,596.358215 625.497681,593.412048 622.532166,591.410645 
	C615.002380,586.329041 607.145142,581.732727 599.147583,576.698669 
	C596.417969,574.495605 593.852905,572.653992 591.527893,570.547363 
	C588.457886,567.765747 588.791565,565.760986 592.829529,564.628174 
	C598.234314,563.111816 603.866821,562.411133 609.278809,560.915955 
	C619.272705,558.154663 629.177368,555.070435 639.443176,552.012878 
	C647.879456,546.536621 648.861023,541.079346 642.843750,534.419373 
	C641.853271,533.323120 640.753052,532.156128 639.457825,531.531189 
	C625.783264,524.933960 612.058960,518.440063 598.134155,511.639557 
	C598.450073,510.515411 598.897034,509.011902 599.524048,508.932648 
	C602.983215,508.495361 606.483826,508.335175 609.974854,508.209412 
	C622.610901,507.754211 635.258179,507.520599 647.880127,506.823120 
	C651.624146,506.616241 655.771912,505.705811 657.240234,501.355438 
	C658.788147,496.769226 657.205322,492.505280 653.877808,489.503723 
	C649.464539,485.522766 644.810059,481.490814 639.583984,478.784821 
	C617.889160,467.551361 595.963440,456.752563 571.859436,450.445557 
	C571.544922,449.780853 571.415527,449.516693 571.286194,449.252502 
z"/>
<path fill="#3B2417" opacity="1.000000" stroke="none" 
	d="
M561.307739,664.243652 
	C540.103027,664.624268 519.344788,665.329407 498.598602,665.069275 
	C488.015472,664.936523 477.445221,663.148254 466.888794,661.937134 
	C464.103271,661.617554 461.288544,660.920227 458.687286,659.890747 
	C457.364563,659.367249 455.648163,657.720520 455.647766,656.580994 
	C455.647400,655.484253 457.473663,653.695435 458.766327,653.404053 
	C466.056030,651.761108 473.374054,649.773376 480.780945,649.218323 
	C496.349945,648.051514 512.003052,646.836609 527.579041,647.248901 
	C544.639343,647.700562 561.657166,649.906494 578.679016,651.502625 
	C581.118835,651.731323 583.585510,652.589722 585.833130,653.611328 
	C587.194092,654.229797 588.157349,655.723022 589.299316,656.823242 
	C588.126038,657.845642 587.085205,659.511719 585.757751,659.784912 
	C577.794861,661.423767 569.765991,662.742615 561.307739,664.243652 
z"/>
<path fill="#2894D0" opacity="1.000000" stroke="none" 
	d="
M599.418945,576.942139 
	C607.145142,581.732727 615.002380,586.329041 622.532166,591.410645 
	C625.497681,593.412048 625.316284,596.358215 622.527344,599.018250 
	C614.943481,606.251526 605.418457,610.172058 595.765015,612.910034 
	C579.029541,617.656799 561.925476,621.103699 544.979370,625.109863 
	C544.507812,625.221375 544.074463,625.494507 543.372742,625.911011 
	C542.626953,626.298828 542.131714,626.467957 540.998779,626.556763 
	C539.585815,626.602112 538.810669,626.727783 538.035461,626.853516 
	C534.929932,627.156982 531.824341,627.460449 528.369385,627.757568 
	C537.883972,624.496704 547.963806,621.766968 557.546021,617.827026 
	C565.691223,614.478027 572.433472,608.949463 574.854492,599.371216 
	C577.243225,591.840515 574.995728,586.192993 567.372131,580.996216 
	C567.042664,580.897949 566.999390,580.498230 567.145386,579.972900 
	C570.223633,578.632324 573.130127,577.246094 576.093018,577.112976 
	C583.855164,576.764038 591.641968,576.962097 599.418945,576.942139 
z"/>
<path fill="#3BBCE4" opacity="1.000000" stroke="none" 
	d="
M655.242615,582.494995 
	C647.798828,581.716980 640.621582,581.466980 633.798035,579.783508 
	C628.708496,578.527832 628.435730,575.030884 632.757996,572.003723 
	C639.265076,567.446350 646.583618,564.822876 654.581909,564.442078 
	C656.044678,564.372437 657.893005,564.361633 658.937683,565.151367 
	C661.437561,567.041138 664.989502,569.169312 665.438354,571.679993 
	C665.880188,574.151672 663.417358,577.538879 661.468384,579.895203 
	C660.270752,581.343201 657.645325,581.610291 655.242615,582.494995 
z"/>
<path fill="#3BBCE4" opacity="1.000000" stroke="none" 
	d="
M666.378113,512.781006 
	C669.935974,512.617676 673.343384,513.046021 673.408142,516.886108 
	C673.474792,520.836731 669.922485,521.849426 666.656372,521.872681 
	C663.888855,521.892395 661.083496,521.324036 658.363403,520.711426 
	C657.410950,520.496948 656.098816,519.457031 655.981567,518.645325 
	C655.867004,517.851196 656.868225,516.448303 657.724609,516.045105 
	C660.396667,514.786804 663.231995,513.875183 666.378113,512.781006 
z"/>
<path fill="#2976B9" opacity="1.000000" stroke="none" 
	d="
M547.082031,445.840454 
	C536.804626,445.060638 526.527161,444.280823 515.891418,443.477356 
	C525.817444,443.776031 536.101807,444.098389 546.729980,444.870911 
	C547.076599,445.494171 547.079346,445.667328 547.082031,445.840454 
z"/>
<path fill="#2894D0" opacity="1.000000" stroke="none" 
	d="
M547.441284,445.890869 
	C547.079346,445.667328 547.076599,445.494171 547.058411,445.061768 
	C554.930115,446.144318 562.817200,447.486084 570.840820,449.346313 
	C570.879822,450.057037 570.782288,450.249359 570.285034,450.354126 
	C563.926270,449.152557 557.967102,448.038574 552.007996,446.924591 
	C550.605469,446.596832 549.203003,446.269043 547.441284,445.890869 
z"/>
<path fill="#3BBCE4" opacity="1.000000" stroke="none" 
	d="
M538.390503,626.881592 
	C538.810669,626.727783 539.585815,626.602112 540.603638,626.525085 
	C540.145996,626.685791 539.445801,626.797791 538.390503,626.881592 
z"/>
<path fill="#2894D0" opacity="1.000000" stroke="none" 
	d="
M571.288330,449.285522 
	C571.415527,449.516693 571.544922,449.780853 571.622925,450.418945 
	C571.258240,450.720215 570.962646,450.603149 570.684692,450.441681 
	C570.782288,450.249359 570.879822,450.057037 571.113342,449.569550 
	C571.249329,449.274353 571.290405,449.318573 571.288330,449.285522 
z"/>
<path fill="#533789" opacity="1.000000" stroke="none" 
	d="
M488.149292,479.479858 
	C490.274200,478.512329 492.681915,477.112640 495.097137,477.099579 
	C523.082031,476.947723 551.068054,477.005493 579.663208,477.365417 
	C582.309937,485.743042 576.865967,490.774414 572.650208,496.129730 
	C568.065491,501.953857 563.038208,507.429657 557.945679,513.279541 
	C550.185364,522.344238 542.683167,531.186768 535.180908,540.029175 
	C531.482361,539.327576 527.783752,538.625977 523.655151,537.919922 
	C534.167419,513.661133 519.175781,495.538605 503.856934,486.572205 
	C499.028381,483.745911 493.593201,481.956085 488.149292,479.479858 
z"/>
<path fill="#F3E52F" opacity="1.000000" stroke="none" 
	d="
M483.448273,495.480682 
	C489.649933,498.377289 491.301575,504.155914 492.021851,510.083374 
	C493.173126,519.557312 492.278442,528.601074 483.153198,534.739014 
	C475.872040,528.868103 475.076019,521.066406 474.964966,512.661255 
	C476.158997,505.827942 478.001007,499.753265 483.448273,495.480682 
z"/>
<path fill="#F3E52F" opacity="1.000000" stroke="none" 
	d="
M429.483887,497.293671 
	C430.944305,499.199005 433.030365,500.892517 433.759247,503.045532 
	C437.352203,513.658264 437.378845,524.103699 430.548218,533.896729 
	C428.078461,528.252991 426.138916,522.636841 424.295319,516.573120 
	C426.088806,509.848267 427.786346,503.570953 429.483887,497.293671 
z"/>
<path fill="#D12C7D" opacity="1.000000" stroke="none" 
	d="
M424.199371,517.020752 
	C426.138916,522.636841 428.078461,528.252991 430.316376,534.136108 
	C426.233795,538.212830 422.164642,538.030579 419.939148,532.955872 
	C417.885315,528.272522 417.278687,522.954468 416.499023,517.479858 
	C419.375397,517.036072 421.787384,517.028442 424.199371,517.020752 
z"/>
<path fill="#D12C7D" opacity="1.000000" stroke="none" 
	d="
M474.874786,513.050903 
	C475.076019,521.066406 475.872040,528.868103 482.815186,534.799255 
	C478.610687,537.374939 475.284119,535.427185 472.566528,532.098206 
	C468.193848,526.741882 467.409241,520.344604 468.276062,513.359680 
	C470.836121,513.028259 472.855438,513.039551 474.874786,513.050903 
z"/>
<path fill="#AF2F80" opacity="1.000000" stroke="none" 
	d="
M424.295319,516.573181 
	C421.787384,517.028442 419.375397,517.036072 416.550323,517.047607 
	C417.410583,511.456757 418.168152,505.671265 420.141449,500.335449 
	C421.423920,496.867645 424.596527,494.359772 429.239899,497.021362 
	C427.786346,503.570953 426.088806,509.848267 424.295319,516.573181 
z"/>
<path fill="#AF2F80" opacity="1.000000" stroke="none" 
	d="
M474.964966,512.661255 
	C472.855438,513.039551 470.836121,513.028259 468.382568,513.009888 
	C469.555664,508.224091 470.643768,503.176788 472.933136,498.750854 
	C474.793488,495.154358 478.595490,493.740662 483.153107,495.316162 
	C478.001007,499.753265 476.158997,505.827942 474.964966,512.661255 
z"/>
<path fill="#2976B9" opacity="1.000000" stroke="none" 
	d="
M535.027771,540.365479 
	C542.683167,531.186768 550.185364,522.344238 558.394653,513.268555 
	C567.910095,513.021973 576.720703,513.119446 585.526062,512.947510 
	C589.805237,512.863953 594.074524,512.276855 598.348328,511.917725 
	C612.058960,518.440063 625.783264,524.933960 639.457825,531.531189 
	C640.753052,532.156128 641.853271,533.323120 642.843750,534.419373 
	C648.861023,541.079346 647.879456,546.536621 639.091187,551.824219 
	C635.522461,551.163208 632.631836,550.091003 629.736694,550.078857 
	C600.256531,549.954590 570.775513,549.969849 541.295105,550.054138 
	C538.336670,550.062622 535.380127,550.782288 532.422729,551.171936 
	C533.239990,547.681885 534.057312,544.191833 535.027771,540.365479 
z"/>
<path fill="#2983C3" opacity="1.000000" stroke="none" 
	d="
M532.457642,551.557129 
	C535.380127,550.782288 538.336670,550.062622 541.295105,550.054138 
	C570.775513,549.969849 600.256531,549.954590 629.736694,550.078857 
	C632.631836,550.091003 635.522461,551.163208 638.767212,551.932129 
	C629.177368,555.070435 619.272705,558.154663 609.278809,560.915955 
	C603.866821,562.411133 598.234314,563.111816 592.829529,564.628174 
	C588.791565,565.760986 588.457886,567.765747 591.527893,570.547363 
	C593.852905,572.653992 596.417969,574.495605 599.147583,576.698669 
	C591.641968,576.962097 583.855164,576.764038 576.093018,577.112976 
	C573.130127,577.246094 570.223633,578.632324 567.118225,579.773682 
	C558.776367,575.473511 550.471008,571.068787 542.487793,566.141968 
	C537.288879,562.933411 533.857056,558.060913 532.457642,551.557129 
z"/>
<path fill="#2953A0" opacity="1.000000" stroke="none" 
	d="
M598.134155,511.639587 
	C594.074524,512.276855 589.805237,512.863953 585.526062,512.947510 
	C576.720703,513.119446 567.910095,513.021973 558.652771,513.046387 
	C563.038208,507.429657 568.065491,501.953857 572.650208,496.129730 
	C576.865967,490.774414 582.309937,485.743042 580.131226,477.367767 
	C577.606689,464.426422 567.975586,458.603302 557.914551,453.030457 
	C555.670471,451.787445 554.016663,449.478760 552.049561,447.292664 
	C557.967102,448.038574 563.926270,449.152557 570.285034,450.354126 
	C570.962646,450.603149 571.258240,450.720215 571.807983,450.819458 
	C595.963440,456.752563 617.889160,467.551361 639.583984,478.784821 
	C644.810059,481.490814 649.464539,485.522766 653.877808,489.503723 
	C657.205322,492.505280 658.788147,496.769226 657.240234,501.355438 
	C655.771912,505.705811 651.624146,506.616241 647.880127,506.823120 
	C635.258179,507.520599 622.610901,507.754211 609.974854,508.209412 
	C606.483826,508.335175 602.983215,508.495361 599.524048,508.932648 
	C598.897034,509.011902 598.450073,510.515411 598.134155,511.639587 
z"/>
<path fill="#6460A2" opacity="1.000000" stroke="none" 
	d="
M517.753784,452.720337 
	C519.088257,453.774475 520.422729,454.828613 521.757202,455.882751 
	C520.505859,457.051605 519.409485,458.969147 517.977661,459.265472 
	C509.854034,460.946533 501.685760,462.509125 493.464569,463.597229 
	C483.089905,464.970398 472.659607,465.966187 462.229523,466.841278 
	C460.155792,467.015259 457.974731,465.909943 455.843140,465.394562 
	C457.386932,463.632172 458.876892,461.817657 460.504639,460.136566 
	C461.053009,459.570221 461.951294,459.342682 463.310638,459.134247 
	C465.888275,459.440277 467.879211,459.872437 469.795868,459.653748 
	C479.332367,458.565521 488.865479,457.419464 498.367584,456.067444 
	C504.857025,455.144073 511.293579,453.849121 517.753784,452.720337 
z"/>
<path fill="#3BBCE4" opacity="1.000000" stroke="none" 
	d="
M517.447266,452.597412 
	C511.293579,453.849121 504.857025,455.144073 498.367584,456.067444 
	C488.865479,457.419464 479.332367,458.565521 469.795868,459.653748 
	C467.879211,459.872437 465.888275,459.440277 463.677307,459.045837 
	C480.579346,450.298248 498.381500,447.311798 517.447266,452.597412 
z"/>
</svg>
